<svg width="430" height="134" viewBox="0 0 430 134" fill="none" xmlns="http://www.w3.org/2000/svg">
<g clip-path="url(#clip0_19940_3920)">
<path d="M171.393 113.533C171.274 113.533 171.154 113.533 171.023 113.533C160.043 113.473 149.673 109.621 141.86 102.707C132.888 94.7761 128.145 83.6871 128.145 70.6484C128.145 40.3124 149.398 26.7234 170.461 26.7234C181.321 26.7234 196.876 28.3981 206.529 42.8843C211.177 49.906 211.87 57.5977 208.429 64.0214C206.792 67.0717 204.319 69.6077 201.356 71.4379C203.399 72.036 205.215 73.2561 206.565 74.9667C208.752 77.7539 209.48 81.5818 208.56 85.4934C204.773 102.551 190.21 113.521 171.393 113.521V113.533ZM152.636 48.1954C146.244 53.722 143.676 62.3586 143.676 70.6484C143.676 89.3213 157.905 97.9101 171.13 97.9819C173.89 98.0178 176.817 97.635 179.601 96.7618C179.171 96.7857 178.729 96.7977 178.298 96.7977C165.013 96.7977 154.715 85.8284 152.063 68.8421C150.665 59.8705 150.844 53.1478 152.636 48.1835V48.1954ZM200.735 85.8164H200.723C200.723 85.8164 200.723 85.8164 200.735 85.8164ZM166.937 54.6909C166.614 56.4613 166.399 59.9901 167.403 66.4617C167.642 67.9689 169.947 81.2588 178.298 81.2588C181.763 81.2588 185.694 79.1176 189.361 75.2299C189.529 75.0505 189.696 74.883 189.863 74.7155C181.5 74.7155 174.368 69.9426 170.808 61.9519C168.968 57.7652 167.725 55.7077 166.949 54.7029L166.937 54.6909ZM176.817 42.5972C180.951 46.437 183.388 51.9875 184.989 55.6479C186.04 58.0044 187.629 59.1647 189.851 59.1647C191.918 59.1647 193.973 58.124 194.738 56.6886C195.586 55.1215 194.582 53.0042 193.591 51.5209C190.114 46.3054 184.941 43.4943 176.817 42.6091V42.5972Z" fill="white"/>
<path d="M251.833 113.114C248.225 113.114 244.617 112.839 240.137 112.217C237.771 111.906 235.812 111.212 234.223 110.267C232.729 111.248 230.985 111.918 229.05 112.205C224.677 112.827 221.117 113.114 217.796 113.114C214.188 113.114 210.579 112.839 206.099 112.217C197.366 111.057 194.248 104.968 194.248 99.6567C194.248 94.3455 197.485 90.9721 199.505 89.3094V43.925C199.337 43.7216 199.122 43.4824 198.943 43.279C197.306 41.4488 194.248 38.0277 194.248 32.5251C194.248 26.2449 199.039 19.4863 209.54 19.4863H216.446C225.693 19.4863 235.656 26.3646 235.656 37.4894V45.6595C238.333 44.7504 241.152 44.2839 244.079 44.2839C259.634 44.2839 269.694 54.0689 269.694 69.201V89.3692C271.259 91.0439 273.815 94.1541 273.815 99.3576C273.815 106.08 269.503 111.248 263.075 112.205C258.702 112.827 255.142 113.114 251.821 113.114H251.833ZM246.982 97.348C250.184 97.6231 252.789 97.647 256.146 97.3599C255.118 95.8527 254.174 93.7713 254.174 91.0798V69.1891C254.174 64.8229 253.028 59.8227 244.091 59.8227C243.458 59.8227 242.849 59.8705 242.251 59.9782C245.656 61.952 249.073 66.3301 249.073 76.0075V91.0798C249.073 93.7593 248.117 95.8048 246.97 97.336L246.982 97.348ZM213.363 97.3839C216.386 97.6231 218.895 97.647 222.108 97.3719C221.081 95.8647 220.137 93.7832 220.137 91.0918V83.759C220.137 79.9789 221.332 72.5265 224.546 66.677C222.061 65.3133 220.137 62.5979 220.137 58.6624V37.4894C220.137 35.7668 217.497 35.0371 216.457 35.0371H212.288C213.686 36.9391 215.048 39.5708 215.048 43.1714V91.8095C215.048 94.1182 214.319 95.9484 213.375 97.3839H213.363Z" fill="white"/>
<path d="M284.58 113.114C281.115 113.114 277.352 112.827 272.74 112.217C263.959 111.045 260.829 104.956 260.829 99.6566C260.829 94.3574 264.067 90.9721 266.086 89.3094V69.7393C265.919 69.536 265.704 69.2967 265.524 69.0934C263.888 67.2632 260.829 63.842 260.829 58.3394C260.829 53.7579 262.884 50.3487 265.871 48.1596C264.031 45.3126 262.992 41.8795 262.992 38.0875C262.992 27.2976 271.378 19.4624 282.931 19.4624C294.484 19.4624 302.871 27.2976 302.871 38.0875C302.871 43.2073 300.983 47.6572 297.758 50.9229C300.637 54.0091 302.25 58.2317 302.25 63.2798V89.2855C304.269 90.9482 307.506 94.166 307.506 99.6327C307.506 102.815 306.371 110.399 295.858 112.157C291.641 112.803 288.092 113.09 284.58 113.09V113.114ZM279.944 97.3719C283.063 97.6231 285.583 97.6351 288.403 97.4197C287.447 95.9843 286.707 94.1421 286.707 91.8214V63.3156C286.707 61.7845 286.707 60.8634 283.027 60.8634H278.857C280.255 62.7654 281.617 65.3971 281.617 68.9857V91.8095C281.617 94.1182 280.9 95.9364 279.944 97.3719ZM282.919 35.0371C278.511 35.0371 278.511 37.2621 278.511 38.1114C278.511 38.9607 278.511 41.1857 282.919 41.1857C287.328 41.1857 287.328 38.9607 287.328 38.1114C287.328 37.2621 287.328 35.0371 282.919 35.0371Z" fill="white"/>
<path d="M313.934 133.354C310.469 133.354 306.706 133.067 302.094 132.457C293.313 131.285 290.183 125.196 290.183 119.897C290.183 114.597 293.445 111.176 295.44 109.502V69.7394C295.273 69.536 295.058 69.2968 294.878 69.0934C293.242 67.2632 290.183 63.8421 290.183 58.3395C290.183 52.0593 294.974 45.3007 305.475 45.3007H312.381C315.499 45.3007 318.581 46.0543 321.437 47.5137C325.594 45.3486 330.54 44.272 336.406 44.272C352.284 44.272 368.305 54.9781 368.305 78.9024C368.305 104.466 351.675 113.533 337.434 113.533C336.633 113.533 335.845 113.509 335.068 113.461C336.084 115.136 336.848 117.253 336.848 119.909C336.848 123.091 335.714 130.675 325.2 132.433C320.983 133.079 317.434 133.366 313.922 133.366L313.934 133.354ZM309.239 117.6C312.393 117.851 314.914 117.875 317.769 117.648C316.813 116.212 316.072 114.37 316.072 112.05V103.377C316.072 100.327 317.518 97.683 319.752 96.1279C316.813 89.776 316.383 81.4025 316.144 76.6535L316.084 75.2898L316.132 70.5169C316.288 69.0695 316.73 66.3182 317.9 63.4832C317.004 63.1243 316.168 62.6219 315.427 61.9999C314.388 61.2343 313.396 60.8515 312.393 60.8515H308.223C309.621 62.7535 310.983 65.3852 310.983 68.9738V111.942C310.983 114.298 310.23 116.153 309.251 117.6H309.239ZM342.177 60.708C345.63 66.6412 345.988 74.9668 346.143 78.6751C346.299 82.4073 346.633 90.6612 343.802 96.8695C349.715 94.513 352.798 88.4123 352.798 78.9024C352.798 66.8924 347.219 62.3587 342.177 60.708Z" fill="white"/>
<path d="M375.617 133.354C372.152 133.354 368.389 133.067 363.777 132.457C354.996 131.285 351.866 125.196 351.866 119.897C351.866 114.597 355.128 111.176 357.123 109.502V69.7394C356.955 69.536 356.74 69.2968 356.561 69.0934C354.924 67.2632 351.866 63.8421 351.866 58.3395C351.866 52.0593 356.657 45.3007 367.158 45.3007H374.064C377.182 45.3007 380.252 46.0543 383.12 47.5137C387.277 45.3486 392.223 44.272 398.089 44.272C413.967 44.272 429.988 54.9781 429.988 78.9024C429.988 104.466 413.358 113.533 399.117 113.533C398.316 113.533 397.528 113.509 396.751 113.461C397.767 115.136 398.531 117.253 398.531 119.909C398.531 123.091 397.396 130.675 386.883 132.433C382.666 133.079 379.117 133.366 375.605 133.366L375.617 133.354ZM370.922 117.6C374.076 117.851 376.596 117.875 379.452 117.648C378.496 116.212 377.755 114.37 377.755 112.05V103.377C377.755 100.327 379.201 97.683 381.435 96.1279C378.496 89.776 378.066 81.4025 377.827 76.6535L377.767 75.2898L377.815 70.5169C377.97 69.0695 378.412 66.3182 379.583 63.4832C378.687 63.1243 377.851 62.6219 377.11 61.9999C376.071 61.2343 375.079 60.8515 374.076 60.8515H369.906C371.304 62.7535 372.666 65.3852 372.666 68.9738V111.942C372.666 114.298 371.913 116.153 370.934 117.6H370.922ZM403.86 60.708C407.312 66.6412 407.671 74.9668 407.826 78.6751C407.981 82.4073 408.316 90.6612 405.485 96.8695C411.398 94.513 414.481 88.4123 414.481 78.9024C414.481 66.8924 408.901 62.3587 403.86 60.708Z" fill="white"/>
<path d="M73.4749 42.6092C69.1261 42.6092 64.0486 41.1858 61.8623 34.7621C60.9901 32.1304 61.3486 29.2834 62.83 26.9029C63.5827 25.6948 64.5982 24.6421 65.8885 23.721C65.8287 23.6492 65.769 23.5775 65.7093 23.4937C63.4154 20.4673 62.6986 16.5916 63.738 12.8713C65.8765 5.13184 72.1607 1.19629 82.4232 1.19629C89.6632 1.19629 95.804 3.93562 99.6868 8.88795C103.486 13.7326 104.669 20.1204 103.02 26.879C100.846 35.743 92.8531 41.4609 82.6622 41.4609H82.4232C81.802 41.413 80.3803 41.724 79.3289 41.9274C77.9789 42.1906 75.8284 42.6092 73.4749 42.6092Z" fill="white"/>
<path d="M73.4031 43.8652C67.2264 43.8652 62.6029 40.6833 60.7272 35.1448C59.7356 32.1782 60.1418 28.9484 61.8144 26.2689C62.4595 25.2401 63.26 24.319 64.2397 23.4937C62.137 20.2878 61.5277 16.3523 62.591 12.5483C65.4463 2.17711 74.9562 0 82.4231 0C89.8901 0 96.5088 2.89484 100.642 8.15819C104.669 13.3019 105.935 20.0605 104.191 27.178C101.873 36.5922 93.4264 42.669 82.6621 42.669H82.4829C81.8855 42.6451 80.3921 42.9561 79.5678 43.1116C77.8235 43.4465 75.673 43.8652 73.4031 43.8652Z" fill="white"/>
<path d="M19.9993 132.804C16.6064 132.804 13.2851 131.656 10.5253 129.454C6.27211 126.057 4.18137 120.806 4.92209 115.411L6.47521 104.143C3.0225 97.5514 1.20654 90.2665 1.20654 82.8739C1.20654 57.4782 21.8392 36.8315 47.1909 36.8315H79.7826C105.146 36.8315 125.767 57.4902 125.767 82.8739C125.767 108.258 105.134 128.916 79.7826 128.916H47.1909C43.571 128.916 39.9749 128.486 36.4505 127.636L25.4353 131.799C23.6551 132.469 21.8153 132.804 19.9993 132.804ZM47.1909 52.3823C30.3933 52.3823 16.7378 66.067 16.7378 82.8739C16.7378 88.3645 18.267 93.7833 21.1701 98.5682L22.6038 100.925L20.3697 117.086L35.8053 111.248L38.3381 112.026C41.2174 112.911 44.2042 113.365 47.1909 113.365H79.7826C96.5802 113.365 110.236 99.6807 110.236 82.8739C110.236 66.067 96.5683 52.3823 79.7826 52.3823H47.1909Z" fill="white"/>
<path d="M20.0233 134C16.3317 134 12.6878 132.72 9.77273 130.387C5.18504 126.727 2.92704 121.057 3.72749 115.243L5.23283 104.358C1.80401 97.6949 0 90.3142 0 82.8738C0 56.8202 21.1703 35.6233 47.191 35.6233H79.7827C105.804 35.6233 126.974 56.8202 126.974 82.8738C126.974 108.927 105.804 130.124 79.7827 130.124H47.191C43.6069 130.124 40.0228 129.706 36.5223 128.892L25.8535 132.923C23.9659 133.629 22.0066 134 20.0114 134H20.0233ZM47.203 53.5785C31.0744 53.5785 17.9445 66.7129 17.9445 82.8738C17.9445 88.1371 19.414 93.3526 22.1977 97.9461L23.8464 100.673L21.8393 115.255L35.7577 109.992L38.6847 110.889C41.4564 111.738 44.3237 112.169 47.191 112.169H79.7827C95.9113 112.169 109.041 99.0227 109.041 82.8738C109.041 66.7249 95.9113 53.5785 79.7827 53.5785H47.191H47.203Z" fill="white"/>
<path d="M28.482 120.112C25.089 120.112 21.7677 118.964 18.996 116.763C14.7428 113.365 12.6521 108.114 13.3928 102.719L14.9459 91.4507C11.4932 84.8595 9.67725 77.5746 9.67725 70.182C9.67725 44.7863 30.3099 24.1396 55.6616 24.1396H88.2533C113.617 24.1396 134.238 44.7983 134.238 70.182C134.238 95.5656 113.605 116.224 88.2533 116.224H55.6616C52.0417 116.224 48.4456 115.794 44.9212 114.944L33.906 119.107C32.1258 119.777 30.286 120.112 28.47 120.112H28.482ZM55.6736 39.6904C38.876 39.6904 25.2204 53.3751 25.2204 70.182C25.2204 75.6606 26.7496 81.0914 29.6528 85.8763L31.0864 88.2328L28.8523 104.394L44.288 98.5562L46.8208 99.3337C49.7 100.219 52.6749 100.662 55.6736 100.662H88.2653C105.063 100.662 118.718 86.9768 118.718 70.17C118.718 53.3632 105.051 39.6785 88.2653 39.6785H55.6736V39.6904Z" fill="white"/>
<path d="M28.5058 121.308C24.8141 121.308 21.1702 120.028 18.2551 117.696C13.6675 114.023 11.4095 108.365 12.2099 102.551L13.7153 91.654C10.2864 84.991 8.48242 77.6223 8.48242 70.1699C8.48242 44.1164 29.6527 22.9194 55.6735 22.9194H88.2651C114.286 22.9194 135.456 44.1164 135.456 70.1699C135.456 96.2235 114.286 117.42 88.2651 117.42H55.6735C52.0893 117.42 48.5052 117.002 45.0167 116.188L34.3479 120.22C32.4722 120.925 30.5009 121.296 28.5058 121.296V121.308ZM55.6735 40.8866C39.5449 40.8866 26.415 54.033 26.415 70.1819C26.415 75.4452 27.8845 80.6607 30.6682 85.2542L32.3169 87.9816L30.3098 102.563L44.2281 97.3001L47.1552 98.1972C49.9269 99.0466 52.7823 99.4772 55.6615 99.4772H88.2532C104.382 99.4772 117.512 86.3428 117.512 70.1819C117.512 54.021 104.382 40.8866 88.2532 40.8866H55.6615H55.6735Z" fill="white"/>
<path d="M79.3407 85.7566H71.5751C61.2289 85.7566 52.8181 77.3353 52.8181 66.9761V54.1526C52.8181 43.7934 61.2289 35.3721 71.5751 35.3721H79.3407V85.7566Z" fill="white"/>
<path d="M71.5749 85.7566H63.8093V35.3721H71.5749C81.9211 35.3721 90.3319 43.7934 90.3319 54.1526V66.9761C90.3319 77.3353 81.9211 85.7566 71.5749 85.7566Z" fill="white"/>
<path d="M71.575 72.7658C64.8607 72.7658 59.4009 67.2991 59.4009 60.5764C59.4009 53.8537 64.8607 48.387 71.575 48.387C78.2892 48.387 83.7491 53.8537 83.7491 60.5764C83.7491 67.2991 78.2892 72.7658 71.575 72.7658ZM71.575 57.215C69.7232 57.215 68.2178 58.7223 68.2178 60.5764C68.2178 62.4305 69.7232 63.9378 71.575 63.9378C73.4268 63.9378 74.9321 62.4305 74.9321 60.5764C74.9321 58.7223 73.4268 57.215 71.575 57.215Z" fill="white"/>
<path d="M109.842 85.7566H102.076C91.7299 85.7566 83.3191 77.3353 83.3191 66.9761V54.1526C83.3191 43.7934 91.7299 35.3721 102.076 35.3721H109.842V85.7566Z" fill="white"/>
<path d="M102.076 85.7566H94.3105V35.3721H102.076C112.422 35.3721 120.833 43.7934 120.833 54.1526V66.9761C120.833 77.3353 112.422 85.7566 102.076 85.7566Z" fill="white"/>
<path d="M102.076 72.7658C95.3617 72.7658 89.9019 67.2991 89.9019 60.5764C89.9019 53.8537 95.3617 48.387 102.076 48.387C108.79 48.387 114.25 53.8537 114.25 60.5764C114.25 67.2991 108.79 72.7658 102.076 72.7658ZM102.076 57.215C100.224 57.215 98.7188 58.7223 98.7188 60.5764C98.7188 62.4305 100.224 63.9378 102.076 63.9378C103.928 63.9378 105.433 62.4305 105.433 60.5764C105.433 58.7223 103.928 57.215 102.076 57.215Z" fill="white"/>
<path d="M85.6129 102.827C73.7255 102.827 65.3386 94.9078 64.4187 93.9987L58.8872 88.5559L73.9047 73.2204L79.4482 78.5196C80.2367 79.2493 82.9845 81.2351 85.6248 81.2351H85.7443C87.4886 81.1992 89.412 80.1226 91.4192 78.0292L96.7953 72.4189L112.362 87.3477L106.986 92.958C100.917 99.2979 93.6652 102.707 86.0191 102.827H85.6248H85.6129Z" fill="white"/>
<path d="M52.3402 90.9602C46.6773 90.9602 42.0657 86.3428 42.0657 80.6727C42.0657 75.0026 46.6773 70.3853 52.3402 70.3853C58.0031 70.3853 62.6147 75.0026 62.6147 80.6727C62.6147 86.3428 58.0031 90.9602 52.3402 90.9602ZM52.3402 75.4094C49.449 75.4094 47.0835 77.7659 47.0835 80.6727C47.0835 83.5795 49.437 85.936 52.3402 85.936C55.2433 85.936 57.5969 83.5795 57.5969 80.6727C57.5969 77.7659 55.2433 75.4094 52.3402 75.4094Z" fill="white"/>
<path d="M52.3402 99.25C46.6773 99.25 42.0657 94.6326 42.0657 88.9625C42.0657 83.2924 46.6773 78.675 52.3402 78.675C58.0031 78.675 62.6147 83.2924 62.6147 88.9625C62.6147 94.6326 58.0031 99.25 52.3402 99.25ZM52.3402 83.6992C49.449 83.6992 47.0835 86.0557 47.0835 88.9625C47.0835 91.8693 49.437 94.2258 52.3402 94.2258C55.2433 94.2258 57.5969 91.8693 57.5969 88.9625C57.5969 86.0557 55.2433 83.6992 52.3402 83.6992Z" fill="white"/>
<path d="M59.6041 95.0034C53.9412 95.0034 49.3296 90.386 49.3296 84.7159C49.3296 79.0459 53.9412 74.4285 59.6041 74.4285C65.267 74.4285 69.8786 79.0459 69.8786 84.7159C69.8786 90.386 65.267 95.0034 59.6041 95.0034ZM59.6041 79.4526C56.7129 79.4526 54.3474 81.8091 54.3474 84.7159C54.3474 87.6227 56.7009 89.9793 59.6041 89.9793C62.5072 89.9793 64.8608 87.6227 64.8608 84.7159C64.8608 81.8091 62.5072 79.4526 59.6041 79.4526Z" fill="white"/>
<path d="M170.461 34.4868C182.325 34.4868 193.256 36.963 200.066 47.1906C207.39 58.2436 198.824 66.9162 189.851 66.9162C185.204 66.9162 180.461 64.5357 177.892 58.758C174.487 51.0185 171.393 46.0542 166.232 46.0542H165.515C159.123 46.6762 157.773 55.0378 159.745 67.6339C161.286 77.5506 166.961 89.0103 178.31 89.0103C183.878 89.0103 189.756 86.1155 195.024 80.5411C196.159 79.297 197.402 78.7827 198.429 78.7827C200.389 78.7827 201.727 80.7444 201.01 83.735C197.713 98.7116 184.714 105.829 171.094 105.733C153.771 105.626 135.922 93.855 135.922 70.6245C135.922 46.0423 152.325 34.4749 170.473 34.4749L170.461 34.4868Z" fill="black"/>
<path d="M202.025 32.5251C202.025 29.6302 204.295 27.2617 209.552 27.2617H216.457C221.511 27.2617 227.903 30.7786 227.903 37.4894V58.6624C227.903 59.4877 228.106 59.9064 228.417 59.9064C228.62 59.9064 229.038 59.7031 229.444 59.1887C233.16 54.8464 238.106 52.0593 244.091 52.0593C255.13 52.0593 261.94 58.148 261.94 69.201V91.0917C261.94 94.1899 266.062 94.7043 266.062 99.3576C266.062 102.767 263.995 104.214 261.94 104.525C258.332 105.04 255.023 105.351 251.833 105.351C248.32 105.351 244.927 105.04 241.212 104.525C238.118 104.119 236.051 102.767 236.051 99.3576C236.051 94.7163 241.307 94.1899 241.307 91.0917V76.0194C241.307 69.7154 239.766 66.2105 236.361 66.2105C230.997 66.2105 227.903 79.0219 227.903 83.7709V91.1037C227.903 94.2019 232.025 94.7163 232.025 99.3696C232.025 102.779 229.958 104.226 227.903 104.537C224.295 105.052 220.985 105.363 217.796 105.363C214.283 105.363 210.89 105.052 207.175 104.537C204.08 104.13 202.013 102.886 202.013 99.6806C202.013 95.2426 207.27 94.7282 207.27 91.8334V43.1953C207.27 38.6497 202.013 37.5133 202.013 32.5609L202.025 32.5251Z" fill="black"/>
<path d="M294.484 91.8095C294.484 94.7043 299.741 95.2187 299.741 99.6566C299.741 102.863 297.674 103.999 294.58 104.513C291.175 105.028 287.973 105.339 284.58 105.339C281.187 105.339 277.663 105.028 273.744 104.513C270.65 104.107 268.583 102.863 268.583 99.6566C268.583 95.2187 273.839 94.7043 273.839 91.8095V68.9857C273.839 64.4401 268.583 63.3037 268.583 58.3513C268.583 55.4565 270.65 53.088 275.082 53.088H283.027C290.147 53.088 294.472 56.6049 294.472 63.3156V91.8214L294.484 91.8095ZM282.931 27.2617C290.255 27.2617 295.105 31.604 295.105 38.1114C295.105 44.6188 290.255 48.9611 282.931 48.9611C275.608 48.9611 270.757 44.6188 270.757 38.1114C270.757 31.604 275.608 27.2617 282.931 27.2617Z" fill="black"/>
<path d="M303.205 111.942V68.9738C303.205 64.4282 297.949 63.2918 297.949 58.3395C297.949 55.4446 300.219 53.0761 305.475 53.0761H312.381C315.368 53.0761 318.056 54.2125 320.326 55.971C320.636 56.282 321.042 56.3896 321.353 56.3896C321.759 56.3896 322.177 56.282 322.596 55.971C326.108 53.2914 330.636 52.0474 336.418 52.0474C348.903 52.0474 360.552 60.0979 360.552 78.9024C360.552 97.7069 349.931 105.757 337.446 105.757C332.906 105.757 328.784 104.729 325.176 102.659C324.866 102.456 324.662 102.456 324.459 102.456C324.041 102.456 323.838 102.767 323.838 103.389V112.061C323.838 114.956 329.095 115.471 329.095 119.909C329.095 123.114 327.028 124.251 323.934 124.765C320.529 125.28 317.327 125.591 313.934 125.591C310.541 125.591 307.017 125.28 303.098 124.765C300.004 124.347 297.937 123.114 297.937 119.909C297.937 115.471 303.193 114.849 303.193 111.954L303.205 111.942ZM323.838 75.2779C324.149 80.8522 324.555 96.8576 331.878 96.8576H332.189C336.837 96.6542 338.891 91.5942 338.378 78.9861C337.864 66.7967 335.283 61.8444 330.947 61.8444H330.636C327.231 62.0477 324.555 64.7392 323.826 71.3423V75.2659L323.838 75.2779Z" fill="black"/>
<path d="M364.888 111.942V68.9738C364.888 64.4282 359.632 63.2918 359.632 58.3395C359.632 55.4446 361.902 53.0761 367.158 53.0761H374.064C377.05 53.0761 379.739 54.2125 382.008 55.971C382.319 56.282 382.725 56.3896 383.036 56.3896C383.442 56.3896 383.86 56.282 384.278 55.971C387.779 53.2914 392.319 52.0474 398.101 52.0474C410.586 52.0474 422.234 60.0979 422.234 78.9024C422.234 97.7069 411.613 105.757 399.129 105.757C394.589 105.757 390.467 104.729 386.859 102.659C386.548 102.456 386.345 102.456 386.142 102.456C385.724 102.456 385.521 102.767 385.521 103.389V112.061C385.521 114.956 390.778 115.471 390.778 119.909C390.778 123.114 388.711 124.251 385.616 124.765C382.212 125.28 379.01 125.591 375.617 125.591C372.224 125.591 368.699 125.28 364.781 124.765C361.686 124.347 359.62 123.114 359.62 119.909C359.62 115.471 364.876 114.849 364.876 111.954L364.888 111.942ZM385.521 75.2779C385.832 80.8522 386.238 96.8576 393.561 96.8576H393.872C398.519 96.6542 400.574 91.5942 400.061 78.9861C399.547 66.7967 396.966 61.8444 392.629 61.8444H392.319C388.914 62.0477 386.238 64.7392 385.509 71.3423V75.2659L385.521 75.2779Z" fill="black"/>
<path d="M83.5104 13.3498C83.367 13.3498 83.2714 13.302 83.1759 13.302C80.894 13.302 82.2798 18.4816 78.7196 20.1443C77.8236 20.575 76.9156 20.7664 76.0554 20.7664C72.9253 20.7664 70.3088 18.1945 71.2168 14.9647C72.5429 10.1679 76.7722 8.97168 82.4232 8.97168C92.1003 8.97168 97.7513 15.7183 95.4814 25.0368C94.0119 31.0299 88.4087 33.6855 82.6621 33.6855C77.9191 33.5419 70.9301 37.2861 69.2216 32.25C68.696 30.683 71.3004 28.3384 80.2488 27.1661C83.8688 26.6876 86.2343 24.5464 86.748 21.0295C87.4171 16.9385 85.6131 13.7087 83.5223 13.3259L83.5104 13.3498Z" fill="black"/>
<path d="M73.4031 36.0898C71.0734 36.0898 68.9946 35.3481 68.0747 32.6447C67.8238 31.915 67.9433 31.1135 68.3973 30.3958C69.6876 28.3383 73.7257 26.8191 80.0815 25.9818C83.2236 25.5751 85.1113 23.8047 85.5533 20.862C86.1148 17.393 84.6453 14.845 83.367 14.534C83.2953 14.534 83.2236 14.522 83.1758 14.5101C83.0325 14.6895 82.8294 15.491 82.6979 16.0293C82.2679 17.7399 81.6824 20.0844 79.2333 21.2328C76.2704 22.6324 72.7221 21.8548 70.9539 19.5222C69.8907 18.1227 69.58 16.3881 70.0699 14.6297C71.7544 8.54097 77.5607 7.76343 82.4351 7.76343C87.6202 7.76343 91.9211 9.6056 94.5375 12.943C97.0584 16.1728 97.811 20.5629 96.6522 25.3119C94.9198 32.3696 88.2892 34.8816 82.6621 34.8816C81.3001 34.8457 79.6634 35.1568 78.0864 35.4678C76.593 35.7549 74.9443 36.0778 73.4031 36.0778V36.0898ZM83.1758 12.0937C83.355 12.0937 83.4865 12.1296 83.5701 12.1416H83.7134C86.3657 12.644 88.7193 16.2446 87.9188 21.2328C87.3334 25.2162 84.5856 27.812 80.3802 28.3622C72.1964 29.4269 70.6433 31.3049 70.4163 31.6638C70.3446 31.7715 70.3327 31.8432 70.3327 31.8672C71.0973 34.1041 73.2358 33.9486 77.5965 33.0993C79.305 32.7643 81.0612 32.4294 82.6621 32.4772C87.3334 32.4772 92.8769 30.4437 94.2747 24.7497C95.2544 20.7304 94.6689 17.07 92.6021 14.4383C90.4516 11.687 86.8197 10.1798 82.3873 10.1798C76.2585 10.1798 73.3434 11.6631 72.3398 15.2876C71.9814 16.5915 72.3995 17.5245 72.8177 18.0748C73.9168 19.5222 76.1868 19.9887 78.158 19.0557C79.5678 18.3978 79.9382 16.9025 80.3085 15.4431C80.6669 14.0316 81.1448 12.0937 83.14 12.0937H83.1758Z" fill="black"/>
<path d="M79.7829 44.6069H47.1912C26.1643 44.6069 8.97241 61.8324 8.97241 82.8738C8.97241 90.087 11.0273 96.8217 14.5278 102.599L12.6163 116.464C11.8397 122.11 17.3712 126.536 22.6996 124.514L36.0684 119.454C39.5928 120.543 43.3323 121.129 47.2031 121.129H79.7948C100.822 121.129 118.014 103.903 118.014 82.8619C118.014 61.8205 100.81 44.595 79.7948 44.595L79.7829 44.6069Z" fill="black"/>
<path d="M20.0234 126.225C18.0879 126.225 16.2003 125.567 14.6233 124.311C12.198 122.373 11.0033 119.382 11.4334 116.308L13.2852 102.863C9.67718 96.7618 7.77759 89.8716 7.77759 82.8738C7.77759 61.1027 25.4593 43.3987 47.203 43.3987H79.7947C101.538 43.3987 119.22 61.1027 119.22 82.8738C119.22 104.645 101.538 122.349 79.7947 122.349H47.203C43.4516 122.349 39.7241 121.811 36.1161 120.746L23.1296 125.662C22.1141 126.045 21.0628 126.237 20.0353 126.237L20.0234 126.225ZM47.1911 45.8031C26.7735 45.8031 10.167 62.4305 10.167 82.8738C10.167 89.5606 12.0308 96.1637 15.5551 101.977L15.7821 102.348L13.8109 116.643C13.5002 118.868 14.3724 121.033 16.1167 122.433C17.8729 123.832 20.1667 124.203 22.2694 123.402L36.0205 118.198L36.4148 118.318C39.9153 119.394 43.5472 119.944 47.1911 119.944H79.7828C100.2 119.944 116.807 103.317 116.807 82.8738C116.807 62.4305 100.2 45.8031 79.7828 45.8031H47.1911Z" fill="black"/>
<path d="M88.2653 31.915H55.6736C34.6467 31.915 17.4548 49.1405 17.4548 70.182C17.4548 77.3951 19.5097 84.1298 23.0102 89.9076L21.0987 103.772C20.3221 109.418 25.8536 113.844 31.1821 111.822L44.5509 106.762C48.0752 107.851 51.8147 108.437 55.6856 108.437H88.2772C109.304 108.437 126.496 91.2114 126.496 70.17C126.496 49.1286 109.292 31.9031 88.2772 31.9031L88.2653 31.915Z" fill="#F9DB00"/>
<path d="M28.5058 113.533C26.5704 113.533 24.6827 112.875 23.1057 111.619C20.6804 109.681 19.4857 106.69 19.9158 103.616L21.7676 90.1706C18.1596 84.0699 16.26 77.1678 16.26 70.1819C16.26 48.4108 33.9417 30.7068 55.6854 30.7068H88.2771C110.021 30.7068 127.703 48.4108 127.703 70.1819C127.703 91.953 110.021 109.657 88.2771 109.657H55.6854C51.934 109.657 48.2066 109.119 44.5985 108.054L31.612 112.97C30.5965 113.353 29.5452 113.545 28.5177 113.545L28.5058 113.533ZM55.6735 33.1231C35.2559 33.1231 18.6494 49.7505 18.6494 70.1938C18.6494 76.8807 20.5132 83.4838 24.0376 89.2974L24.2646 89.6682L22.2933 103.963C21.9827 106.188 22.8548 108.353 24.5991 109.753C26.3553 111.152 28.6492 111.511 30.7518 110.722L44.503 105.518L44.8972 105.638C48.3977 106.714 52.0296 107.265 55.6735 107.265H88.2652C108.683 107.265 125.289 90.6372 125.289 70.1938C125.289 49.7505 108.683 33.1231 88.2652 33.1231H55.6735Z" fill="black"/>
<path d="M71.5751 43.1475C65.5059 43.1475 60.5837 48.0759 60.5837 54.1526V66.9761C60.5837 73.0528 65.5059 77.9812 71.5751 77.9812V43.1475Z" fill="black"/>
<path d="M71.575 43.1475V77.9812C77.6441 77.9812 82.5663 73.0528 82.5663 66.9761V54.1526C82.5663 48.0759 77.6441 43.1475 71.575 43.1475Z" fill="white"/>
<path d="M71.575 64.9785C74.0097 64.9785 75.9835 63.0022 75.9835 60.5644C75.9835 58.1266 74.0097 56.1504 71.575 56.1504C69.1402 56.1504 67.1665 58.1266 67.1665 60.5644C67.1665 63.0022 69.1402 64.9785 71.575 64.9785Z" fill="white"/>
<path d="M102.076 43.1475C96.0069 43.1475 91.0847 48.0759 91.0847 54.1526V66.9761C91.0847 73.0528 96.0069 77.9812 102.076 77.9812V43.1475Z" fill="black"/>
<path d="M102.076 43.1475V77.9812C108.145 77.9812 113.067 73.0528 113.067 66.9761V54.1526C113.067 48.0759 108.145 43.1475 102.076 43.1475Z" fill="white"/>
<path d="M102.076 64.9785C104.511 64.9785 106.484 63.0022 106.484 60.5644C106.484 58.1266 104.511 56.1504 102.076 56.1504C99.6412 56.1504 97.6675 58.1266 97.6675 60.5644C97.6675 63.0022 99.6412 64.9785 102.076 64.9785Z" fill="white"/>
<path d="M85.613 95.0513C76.6527 95.0513 70.1415 88.7233 69.8667 88.4601L74.084 84.1538C74.084 84.1538 79.1735 89.0224 85.613 89.0224C85.6966 89.0224 85.7683 89.0224 85.8519 89.0224C89.7706 88.9506 93.522 87.0606 97.0225 83.4121L101.371 87.5869C96.7118 92.4555 91.5029 94.9675 85.8997 95.0513C85.8041 95.0513 85.7086 95.0513 85.6249 95.0513H85.613Z" fill="black"/>
<path d="M52.3402 83.1848C53.7258 83.1848 54.8491 82.0601 54.8491 80.6727C54.8491 79.2853 53.7258 78.1606 52.3402 78.1606C50.9546 78.1606 49.8313 79.2853 49.8313 80.6727C49.8313 82.0601 50.9546 83.1848 52.3402 83.1848Z" fill="white"/>
<path d="M52.3402 91.4745C53.7258 91.4745 54.8491 90.3499 54.8491 88.9625C54.8491 87.5751 53.7258 86.4504 52.3402 86.4504C50.9546 86.4504 49.8313 87.5751 49.8313 88.9625C49.8313 90.3499 50.9546 91.4745 52.3402 91.4745Z" fill="white"/>
<path d="M59.6041 87.216C60.9897 87.216 62.113 86.0913 62.113 84.7039C62.113 83.3166 60.9897 82.1919 59.6041 82.1919C58.2185 82.1919 57.0952 83.3166 57.0952 84.7039C57.0952 86.0913 58.2185 87.216 59.6041 87.216Z" fill="white"/>
<path d="M193.483 73.6869L182.504 70.1222L177.629 64.9784L173.663 56.1504L167.869 52.0474L163.604 53.0761V66.2943L167.57 75.8281L173.663 82.192H182.814L188.298 79.3689L193.483 73.6869Z" fill="white"/>
</g>
<defs>
<clipPath id="clip0_19940_3920">
<rect width="430" height="134" fill="white"/>
</clipPath>
</defs>
</svg>
