<svg width="168" height="166" viewBox="0 0 168 166" fill="none" xmlns="http://www.w3.org/2000/svg">
<g clip-path="url(#clip0_571_119)">
<path d="M91.3747 51.1435C86.0471 51.1435 79.8672 49.4274 77.2339 41.6972C76.1988 38.5839 76.625 35.1972 78.3907 32.3724C79.4258 30.717 80.8718 29.3047 82.7593 28.0897C82.5005 27.8011 82.257 27.4974 82.0134 27.1937C79.2279 23.5336 78.3603 18.856 79.6237 14.3607C82.257 4.89916 90.02 0.100067 102.684 0.100067C111.68 0.100067 119.276 3.47158 124.086 9.57675C128.774 15.5452 130.235 23.4273 128.18 31.7649C125.501 42.654 115.607 49.6856 102.989 49.6856H102.715C101.862 49.6856 100.066 50.0045 98.6049 50.2931C96.9305 50.612 94.2668 51.1284 91.3595 51.1284L91.3747 51.1435Z" fill="white"/>
<path d="M23.1975 165.654C19.0573 165.654 14.9779 164.257 11.5987 161.568C6.39296 157.422 3.83575 151.029 4.74904 144.438L6.75828 129.888C2.32882 121.581 0.0151434 112.363 0.0151434 103.038C-7.8111e-05 71.221 25.9374 45.3272 57.8265 45.3272H99.3508C131.24 45.3272 157.177 71.2058 157.177 103.023C157.177 134.839 131.24 160.718 99.3508 160.718H57.8265C53.1992 160.718 48.587 160.156 44.0967 159.047L29.8493 164.424C27.6727 165.244 25.4199 165.639 23.1975 165.639V165.654ZM57.8417 63.5516C36.0293 63.5516 18.281 81.2596 18.281 103.023C18.281 110.13 20.275 117.146 24.0347 123.343L25.7243 126.107L22.8474 146.928C22.8322 147.05 22.817 147.171 22.9996 147.323C23.1823 147.475 23.3041 147.429 23.4106 147.384L43.3661 139.866L46.3495 140.777C50.094 141.916 53.9602 142.509 57.8569 142.509H99.3813C121.194 142.509 138.942 124.801 138.942 103.038C138.942 81.2748 121.194 63.5668 99.3813 63.5668H57.8569L57.8417 63.5516Z" fill="white"/>
<path d="M34.0046 149.556C29.8643 149.556 25.785 148.158 22.4058 145.47C17.2 141.324 14.6428 134.93 15.5561 128.339L17.5653 113.79C13.1359 105.483 10.8222 96.2644 10.8222 86.9396C10.8222 55.1229 36.7597 29.2442 68.6488 29.2442H110.173C142.062 29.2442 168 55.1229 168 86.9396C168 118.756 142.062 144.635 110.173 144.635H68.6488C64.0214 144.635 59.4093 144.073 54.919 142.964L40.6716 148.341C38.4949 149.161 36.2422 149.571 34.0198 149.571L34.0046 149.556ZM68.6488 47.4382C46.8363 47.4382 29.088 65.1463 29.088 86.9092C29.088 94.0167 31.0821 101.033 34.8418 107.229L36.5314 109.993L33.6545 130.815C33.6393 130.936 33.624 131.058 33.8067 131.194C33.9894 131.346 34.1111 131.301 34.2177 131.255L54.1731 123.738L57.1565 124.649C60.901 125.788 64.7673 126.38 68.664 126.38H110.188C132.001 126.38 149.749 108.672 149.749 86.9092C149.749 65.1463 132.001 47.4382 110.188 47.4382H68.664H68.6488Z" fill="white"/>
<path d="M98.0267 105.923H88.8937C76.1381 105.923 65.757 95.5652 65.757 82.8385V66.558C65.757 53.8313 76.1381 43.4738 88.8937 43.4738H98.0267V105.923Z" fill="white"/>
<path d="M88.8937 105.923H79.7607V43.4738H88.8937C101.649 43.4738 112.03 53.8313 112.03 66.558V82.8385C112.03 95.5652 101.649 105.923 88.8937 105.923Z" fill="white"/>
<path d="M88.8936 89.4296C80.7501 89.4296 74.1439 82.8233 74.1439 74.7134C74.1439 66.6036 80.7653 59.9972 88.8936 59.9972C97.0219 59.9972 103.643 66.6036 103.643 74.7134C103.643 82.8233 97.0219 89.4296 88.8936 89.4296ZM88.8936 71.2052C86.9605 71.2052 85.3774 72.7695 85.3774 74.7134C85.3774 76.6574 86.9452 78.2216 88.8936 78.2216C90.8419 78.2216 92.4098 76.6574 92.4098 74.7134C92.4098 72.7695 90.8419 71.2052 88.8936 71.2052Z" fill="white"/>
<path d="M136.902 105.923H127.769C115.014 105.923 104.633 95.5652 104.633 82.8385V66.558C104.633 53.8313 115.014 43.4738 127.769 43.4738H136.902V105.923Z" fill="white"/>
<path d="M127.769 105.923H118.636V43.4738H127.769C140.525 43.4738 150.906 53.8313 150.906 66.558V82.8385C150.906 95.5652 140.525 105.923 127.769 105.923Z" fill="white"/>
<path d="M127.769 89.4296C119.626 89.4296 113.02 82.8233 113.02 74.7134C113.02 66.6036 119.641 59.9972 127.769 59.9972C135.898 59.9972 142.519 66.6036 142.519 74.7134C142.519 82.8233 135.898 89.4296 127.769 89.4296ZM127.769 71.2052C125.836 71.2052 124.253 72.7695 124.253 74.7134C124.253 76.6574 125.821 78.2216 127.769 78.2216C129.718 78.2216 131.286 76.6574 131.286 74.7134C131.286 72.7695 129.718 71.2052 127.769 71.2052Z" fill="white"/>
<path d="M106.779 123.768C93.46 123.768 84.0379 114.899 83.0028 113.881L89.4111 107.381L95.7584 100.836C95.7584 100.836 99.0006 103.858 103.384 105.073C106.535 105.939 111.437 106.364 117.495 100.061L130.692 112.666C122.031 121.687 113.157 123.692 107.235 123.768C107.083 123.768 106.946 123.768 106.794 123.768H106.779Z" fill="white"/>
<path d="M64.387 112.529C57.583 112.529 52.0576 107.016 52.0576 100.228C52.0576 93.4389 57.5982 87.9261 64.387 87.9261C71.1758 87.9261 76.7164 93.4541 76.7164 100.228C76.7164 107.001 71.1758 112.529 64.387 112.529ZM64.387 94.3046C61.1144 94.3046 58.4506 96.9623 58.4506 100.228C58.4506 103.493 61.1144 106.15 64.387 106.15C67.6596 106.15 70.3234 103.493 70.3234 100.228C70.3234 96.9623 67.6596 94.3046 64.387 94.3046Z" fill="white"/>
<path d="M64.387 123.069C57.583 123.069 52.0576 117.541 52.0576 110.767C52.0576 103.994 57.5982 98.4659 64.387 98.4659C71.1758 98.4659 76.7164 103.994 76.7164 110.767C76.7164 117.541 71.1758 123.069 64.387 123.069ZM64.387 104.844C61.1144 104.844 58.4506 107.502 58.4506 110.767C58.4506 114.033 61.1144 116.69 64.387 116.69C67.6596 116.69 70.3234 114.033 70.3234 110.767C70.3234 107.502 67.6596 104.844 64.387 104.844Z" fill="white"/>
<path d="M73.6416 117.663C66.8376 117.663 61.3122 112.135 61.3122 105.361C61.3122 98.5877 66.8528 93.0597 73.6416 93.0597C80.4304 93.0597 85.9711 98.5877 85.9711 105.361C85.9711 112.135 80.4304 117.663 73.6416 117.663ZM73.6416 99.4382C70.369 99.4382 67.7052 102.096 67.7052 105.361C67.7052 108.626 70.369 111.284 73.6416 111.284C76.9143 111.284 79.578 108.626 79.578 105.361C79.578 102.096 76.9143 99.4382 73.6416 99.4382Z" fill="white"/>
<path d="M104.1 14.7551C103.917 14.7551 103.795 14.6943 103.674 14.6943C100.766 14.6943 102.532 21.2703 97.9961 23.3813C96.8544 23.928 95.6976 24.171 94.6017 24.171C90.6136 24.171 87.2801 20.9058 88.4369 16.8053C90.1265 10.7153 95.515 9.19662 102.715 9.19662C115.044 9.19662 122.244 17.7621 119.352 29.5928C117.48 37.2014 110.341 40.5729 103.019 40.5729C96.9762 40.3907 88.0716 45.1442 85.8949 38.7505C85.2252 36.761 88.5435 33.7844 99.9444 32.296C104.557 31.6886 107.57 28.9701 108.225 24.5051C109.077 19.3112 106.779 15.2107 104.115 14.7247L104.1 14.7551Z" fill="black"/>
<path d="M91.2224 43.6256C88.2542 43.6256 85.6057 42.684 84.4336 39.2517C84.114 38.3253 84.2662 37.3078 84.8446 36.3966C86.4885 33.7844 91.6334 31.8557 99.7313 30.7926C103.735 30.2762 106.14 28.0285 106.703 24.2925C107.418 19.8883 105.546 16.6535 103.917 16.2586C103.826 16.2586 103.735 16.2434 103.674 16.2282C103.491 16.456 103.232 17.4736 103.065 18.157C102.517 20.3287 101.771 23.3054 98.6505 24.7633C94.8756 26.5402 90.3396 25.5531 88.102 22.5916C86.7473 20.8147 86.3515 18.6126 86.9756 16.3801C89.1219 8.64994 96.5195 7.66278 102.73 7.66278C109.336 7.66278 114.816 10.0016 118.149 14.2387C121.361 18.3392 122.32 23.9129 120.844 29.9421C118.636 38.9024 110.188 42.0917 103.019 42.0917C101.299 42.0309 99.1985 42.441 97.1893 42.8358C95.2866 43.2003 93.186 43.6104 91.2224 43.6104V43.6256ZM103.674 13.1605C103.902 13.1605 104.069 13.206 104.176 13.2212H104.374C107.753 13.8591 110.752 18.4304 109.717 24.7633C108.971 29.8206 105.47 33.1162 100.112 33.8148C89.6851 35.1664 87.7063 37.5508 87.4171 38.0064C87.3409 38.1279 87.3105 38.2342 87.3257 38.2646C88.2999 41.1045 91.0246 40.9071 96.5804 39.8288C98.7571 39.4036 101.01 38.9784 103.05 39.0391C109.001 39.0391 116.064 36.4573 117.845 29.2283C119.093 24.1255 118.347 19.4783 115.714 16.1371C112.974 12.6441 108.347 10.7306 102.699 10.7306C94.8908 10.7306 91.1768 12.6137 89.8982 17.2154C89.4415 18.8708 89.9743 20.0554 90.507 20.754C91.9074 22.5916 94.7995 23.1839 97.311 21.9993C99.1072 21.164 99.5791 19.2656 100.051 17.4128C100.508 15.6208 101.116 13.1605 103.658 13.1605H103.674Z" fill="black"/>
<path d="M99.3509 54.4387H57.8265C31.0367 54.4387 9.13287 76.308 9.13287 103.022C9.13287 112.18 11.751 120.73 16.2109 128.065L13.7754 145.667C12.786 152.835 19.8336 158.454 26.6224 155.888L43.6553 149.464C48.1456 150.846 52.91 151.59 57.8418 151.59H99.3661C126.156 151.59 148.06 129.721 148.06 103.007C148.06 76.2928 126.141 54.4236 99.3661 54.4236L99.3509 54.4387Z" fill="black"/>
<path d="M23.2128 158.06C20.7469 158.06 18.3419 157.224 16.3327 155.63C13.2427 153.169 11.7205 149.373 12.2685 145.47L14.6278 128.399C10.0309 120.654 7.61072 111.891 7.61072 103.022C7.61072 75.3816 30.1386 52.9048 57.8418 52.9048H99.3661C127.069 52.9048 149.597 75.3816 149.597 103.022C149.597 130.662 127.069 153.139 99.3661 153.139H57.8418C53.0622 153.139 48.3131 152.456 43.7162 151.104L27.1704 157.346C25.8766 157.832 24.5371 158.075 23.228 158.075L23.2128 158.06ZM57.8265 55.9574C31.813 55.9574 10.655 77.0673 10.655 103.022C10.655 111.511 13.0296 119.895 17.5199 127.276L17.8091 127.746L15.2976 145.895C14.9018 148.72 16.013 151.468 18.2353 153.245C20.4729 155.022 23.3954 155.478 26.0744 154.475L43.5944 147.869L44.0967 148.021C48.5566 149.388 53.184 150.086 57.8265 150.086H99.3509C125.364 150.086 146.522 128.976 146.522 103.022C146.522 77.0673 125.364 55.9574 99.3509 55.9574H57.8265Z" fill="black"/>
<path d="M110.173 38.3256H68.6487C41.8589 38.3256 19.9551 60.1949 19.9551 86.9088C19.9551 96.0665 22.5732 104.617 27.0331 111.952L24.5976 129.554C23.6082 136.722 30.6558 142.341 37.4446 139.775L54.4775 133.351C58.9678 134.733 63.7322 135.477 68.664 135.477H110.188C136.978 135.477 158.882 113.608 158.882 86.8936C158.882 60.1797 136.963 38.3104 110.188 38.3104L110.173 38.3256Z" fill="#F9DB00"/>
<path d="M34.0199 141.962C31.554 141.962 29.149 141.142 27.1397 139.532C24.0498 137.071 22.5276 133.275 23.0756 129.372L25.4349 112.301C20.838 104.556 18.4178 95.7932 18.4178 86.924C18.4178 59.2837 40.9456 36.8069 68.6488 36.8069H110.173C137.876 36.8069 160.404 59.2837 160.404 86.924C160.404 114.564 137.876 137.041 110.173 137.041H68.6488C63.8693 137.041 59.1202 136.358 54.5232 135.006L37.9774 141.248C36.6836 141.734 35.3441 141.977 34.0351 141.977L34.0199 141.962ZM68.6488 39.8595C42.6352 39.8595 21.4773 60.9695 21.4773 86.924C21.4773 95.4136 23.8519 103.797 28.3422 111.178L28.6314 111.648L26.1199 129.797C25.7241 132.622 26.8353 135.371 29.0576 137.147C31.2952 138.924 34.2177 139.38 36.8967 138.378L54.4167 131.771L54.919 131.923C59.3789 133.29 64.0063 133.989 68.6488 133.989H110.173C136.187 133.989 157.345 112.879 157.345 86.924C157.345 60.9695 136.187 39.8595 110.173 39.8595H68.6488Z" fill="black"/>
<path d="M88.8937 52.5857C81.1612 52.5857 74.8899 58.8427 74.8899 66.5577V82.8381C74.8899 90.5531 81.1612 96.8102 88.8937 96.8102V52.5857Z" fill="black"/>
<path d="M88.8937 52.5857V96.8102C96.6262 96.8102 102.897 90.5531 102.897 82.8381V66.5577C102.897 58.8427 96.6262 52.5857 88.8937 52.5857Z" fill="white"/>
<path d="M88.8938 80.3018C91.9959 80.3018 94.5106 77.7928 94.5106 74.6978C94.5106 71.6028 91.9959 69.0938 88.8938 69.0938C85.7918 69.0938 83.2771 71.6028 83.2771 74.6978C83.2771 77.7928 85.7918 80.3018 88.8938 80.3018Z" fill="white"/>
<path d="M127.77 52.5857C120.037 52.5857 113.766 58.8427 113.766 66.5577V82.8381C113.766 90.5531 120.037 96.8102 127.77 96.8102V52.5857Z" fill="black"/>
<path d="M127.77 52.5857V96.8102C135.502 96.8102 141.773 90.5531 141.773 82.8381V66.5577C141.773 58.8427 135.502 52.5857 127.77 52.5857Z" fill="white"/>
<path d="M127.769 80.3018C130.871 80.3018 133.386 77.7928 133.386 74.6978C133.386 71.6028 130.871 69.0938 127.769 69.0938C124.667 69.0938 122.153 71.6028 122.153 74.6978C122.153 77.7928 124.667 80.3018 127.769 80.3018Z" fill="white"/>
<path d="M106.779 118.497C95.3629 118.497 87.0671 110.463 86.717 110.129L92.0902 104.662C92.0902 104.662 98.5746 110.843 106.779 110.843C106.886 110.843 106.977 110.843 107.083 110.843C112.076 110.752 116.856 108.352 121.316 103.72L126.856 109.021C120.92 115.202 114.283 118.391 107.144 118.497C107.023 118.497 106.901 118.497 106.794 118.497H106.779Z" fill="black"/>
<path d="M64.3869 103.417C66.1523 103.417 67.5835 101.989 67.5835 100.228C67.5835 98.4665 66.1523 97.0386 64.3869 97.0386C62.6216 97.0386 61.1904 98.4665 61.1904 100.228C61.1904 101.989 62.6216 103.417 64.3869 103.417Z" fill="white"/>
<path d="M64.3869 113.941C66.1523 113.941 67.5835 112.513 67.5835 110.752C67.5835 108.99 66.1523 107.562 64.3869 107.562C62.6216 107.562 61.1904 108.99 61.1904 110.752C61.1904 112.513 62.6216 113.941 64.3869 113.941Z" fill="white"/>
<path d="M73.6417 108.55C75.407 108.55 76.8382 107.122 76.8382 105.361C76.8382 103.599 75.407 102.171 73.6417 102.171C71.8763 102.171 70.4451 103.599 70.4451 105.361C70.4451 107.122 71.8763 108.55 73.6417 108.55Z" fill="white"/>
</g>
<defs>
<clipPath id="clip0_571_119">
<rect width="168" height="165.553" fill="white" transform="translate(0 0.100006)"/>
</clipPath>
</defs>
</svg>
